<?xml version="1.0" encoding="UTF-8"?>
<svg id="pagina_de_inicio" data-name="pagina de inicio" xmlns="http://www.w3.org/2000/svg" viewBox="0 0 114.33 72">
  <path d="m114.33,47h-10.09c4.68-1.51,8.07-5.9,8.07-11.08,0-6.43-5.22-11.65-11.65-11.65s-11.65,5.21-11.65,11.65c0,5.18,3.39,9.57,8.07,11.08h-11.41v-22h-4v13.3l-15.33-13.97v22.67h-3.17l-8.43-21.5,6.6-17.5h-20.33v4h12.33l-13.08,35h-6.6c4.68-1.51,8.07-5.9,8.07-11.08,0-6.43-5.22-11.65-11.65-11.65s-11.65,5.22-11.65,11.65c0,5.18,3.39,9.57,8.07,11.08H9.33L26.9,0h-7.83L0,51h38.71l-7.81,21h42.06l-1.57-4h-32.56l6.35-17h13.47l2.33,7h6.48l-2.75-7h49.6v-4Zm-23.26-11.07c0-5.3,4.29-9.59,9.59-9.59l9.59,9.59c0,5.3-4.29,9.59-9.59,9.59s-9.59-4.29-9.59-9.59Zm-70.61-.02c0-5.3,4.29-9.59,9.59-9.59s9.59,4.29,9.59,9.59-4.29,9.59-9.59,9.59l-9.59-9.59Zm26.23,11.09l5.23-14,5.07,14h-10.31Zm23.65-12.58l13.77,12.58h-13.77v-12.58Z"/>
</svg>